<?xml version="1.0" encoding="utf-8"?>

<!DOCTYPE svg PUBLIC "-//W3C//DTD SVG 1.1//EN" "http://www.w3.org/Graphics/SVG/1.1/DTD/svg11.dtd">
<svg version="1.1" id="Layer_1" xmlns="http://www.w3.org/2000/svg" xmlns:xlink="http://www.w3.org/1999/xlink" x="0px" y="0px"
	 viewBox="0 0 2589.052 260.806" enable-background="new 0 0 2589.052 260.806" xml:space="preserve">
<g>
	<path d="M1409.373,236.835c0.562,2.911-0.775,6.067-3.238,7.715c-7.445,5.16-16.214-5.156-9.79-11.648
		C1400.718,228.258,1408.3,230.869,1409.373,236.835z M1179.679,23.971c-0.561-2.911,0.775-6.067,3.238-7.715
		c7.445-5.16,16.214,5.156,9.79,11.648C1188.334,32.548,1180.751,29.937,1179.679,23.971z M1192.706,232.901
		c6.425,6.492-2.345,16.809-9.79,11.648c-2.463-1.648-3.799-4.803-3.238-7.715C1180.751,230.869,1188.334,228.258,1192.706,232.901z
		 M1396.345,27.905c-6.424-6.492,2.345-16.809,9.79-11.648c2.463,1.648,3.799,4.803,3.238,7.715
		C1408.3,29.937,1400.718,32.548,1396.345,27.905z M2310.869,235.91c1.065,3.116-0.275,6.787-2.991,8.606
		c-7.123,4.99-15.727-4.263-10.363-10.98C2301.34,228.507,2309.05,230.132,2310.869,235.91z M278.182,24.896
		c-1.065-3.116,0.275-6.787,2.991-8.606c7.123-4.99,15.727,4.263,10.363,10.98C287.711,32.299,280.002,30.674,278.182,24.896z
		 M291.536,233.536c5.364,6.717-3.24,15.97-10.363,10.98c-2.716-1.819-4.056-5.49-2.991-8.606
		C280.002,230.132,287.711,228.507,291.536,233.536z M2297.515,27.27c-5.364-6.717,3.24-15.97,10.363-10.98
		c2.716,1.819,4.056,5.49,2.991,8.606C2309.05,30.674,2301.34,32.299,2297.515,27.27z M1301.805,228.592
		c16.754,1.944,34.115,0.735,50.004-5.173C1344.099,250.609,1310.447,250.496,1301.805,228.592z M1287.246,32.214
		c-16.754-1.944-34.114-0.735-50.004,5.173C1244.953,10.197,1278.604,10.31,1287.246,32.214z M1237.242,223.42
		c15.89,5.908,33.251,7.117,50.004,5.173C1278.604,250.496,1244.953,250.609,1237.242,223.42z M1351.809,37.386
		c-15.89-5.908-33.251-7.117-50.004-5.173C1310.447,10.31,1344.099,10.197,1351.809,37.386z M1354.837,222.184
		c-0.958,0.397-1.932,0.769-2.914,1.141c1.364-6.012,1.834-12.207,1.526-18.359c0.797-0.424,1.593-0.854,2.365-1.282
		C1356.414,209.843,1356.176,216.126,1354.837,222.184z M1234.215,38.622c0.958-0.397,1.932-0.769,2.914-1.141
		c-1.364,6.012-1.834,12.207-1.526,18.359c-0.796,0.424-1.593,0.854-2.365,1.282C1232.637,50.963,1232.875,44.68,1234.215,38.622z
		 M1233.238,203.685c0.772,0.427,1.568,0.857,2.365,1.282c-0.308,6.152,0.162,12.347,1.526,18.359
		c-0.983-0.372-1.956-0.745-2.914-1.141C1232.875,216.126,1232.637,209.843,1233.238,203.685z M1355.813,57.121
		c-0.772-0.427-1.568-0.857-2.365-1.282c0.308-6.152-0.162-12.347-1.526-18.359c0.983,0.372,1.956,0.745,2.914,1.141
		C1356.176,44.68,1356.414,50.963,1355.813,57.121z M1372.802,212.068c-0.613,0.436-1.184,0.995-1.938,1.227
		c-3.265-4.297-5.67-9.167-8.221-13.903c0.622-0.513,1.242-1.019,1.849-1.52C1367.144,202.669,1369.625,207.588,1372.802,212.068z
		 M1216.25,48.738c0.613-0.436,1.184-0.995,1.938-1.227c3.265,4.297,5.67,9.167,8.221,13.903c-0.623,0.513-1.242,1.019-1.849,1.52
		C1221.908,58.137,1219.427,53.218,1216.25,48.738z M1224.559,197.871c0.607,0.5,1.227,1.007,1.849,1.52
		c-2.551,4.736-4.956,9.607-8.221,13.903c-0.754-0.232-1.324-0.79-1.938-1.227C1219.427,207.588,1221.908,202.669,1224.559,197.871z
		 M1364.492,62.935c-0.607-0.5-1.227-1.007-1.849-1.52c2.551-4.736,4.956-9.607,8.221-13.903c0.754,0.232,1.324,0.79,1.938,1.227
		C1369.625,53.218,1367.144,58.137,1364.492,62.935z M1355.923,203.529c-0.78-9.384-3.473-19.993-4.495-22.625
		c0.073,0.018,0.223,0.058,0.296,0.079c3.699,6.024,7.364,12.075,10.797,18.255C1360.446,200.847,1358.203,202.22,1355.923,203.529z
		 M1233.129,57.277c0.78,9.384,3.473,19.993,4.495,22.625c-0.073-0.018-0.223-0.058-0.296-0.079
		c-3.699-6.024-7.364-12.075-10.797-18.255C1228.606,59.959,1230.849,58.586,1233.129,57.277z M1226.531,199.239
		c3.433-6.18,7.098-12.231,10.797-18.255c0.073-0.021,0.223-0.061,0.296-0.079c-1.022,2.632-3.715,13.241-4.495,22.625
		C1230.849,202.22,1228.606,200.847,1226.531,199.239z M1362.521,61.567c-3.433,6.18-7.098,12.231-10.797,18.255
		c-0.073,0.021-0.223,0.061-0.296,0.079c1.022-2.632,3.715-13.241,4.495-22.625C1358.203,58.586,1360.446,59.959,1362.521,61.567z
		 M1364.529,197.7c-17.829-36.019-34.464-48.564-50.459-54.89c10.65,1.779,20.44,6.796,29.473,12.536
		c12.469,8.072,23.72,17.904,34.12,28.475C1373.952,189.022,1369.671,193.874,1364.529,197.7z M1224.523,63.106
		c17.829,36.019,34.464,48.564,50.459,54.89c-10.65-1.779-20.44-6.796-29.473-12.536c-12.469-8.072-23.72-17.904-34.12-28.475
		C1215.099,71.784,1219.381,66.932,1224.523,63.106z M1211.389,183.822c10.4-10.571,21.651-20.403,34.12-28.475
		c9.033-5.74,18.823-10.757,29.473-12.536c-15.995,6.325-32.63,18.871-50.459,54.89
		C1219.381,193.874,1215.099,189.022,1211.389,183.822z M1377.663,76.984c-10.4,10.571-21.651,20.403-34.12,28.475
		c-9.033,5.74-18.822,10.757-29.473,12.536c15.995-6.325,32.63-18.871,50.459-54.89
		C1369.671,66.932,1373.952,71.784,1377.663,76.984z M1391.459,192.781c7.006-10.153,11.526-21.911,13.778-34.011
		c8.813,6.29,20.395,11.046,30.785,11.203c-0.195,14.32,5.731,32.933,18.716,48.717c3.925,4.748,8.267,9.17,13.125,12.969
		C1435.951,232.101,1414.251,215.526,1391.459,192.781z M1197.592,68.025c-7.007,10.153-11.526,21.911-13.778,34.011
		c-8.813-6.29-20.395-11.046-30.785-11.203c0.195-14.32-5.731-32.933-18.716-48.717c-3.925-4.748-8.267-9.17-13.125-12.969
		C1153.1,28.705,1174.801,45.28,1197.592,68.025z M1121.188,231.659c4.858-3.799,9.201-8.221,13.125-12.969
		c12.985-15.784,18.91-34.396,18.716-48.717c10.39-0.157,21.973-4.913,30.785-11.203c2.252,12.1,6.772,23.858,13.778,34.011
		C1174.801,215.526,1153.1,232.101,1121.188,231.659z M1467.864,29.147c-4.858,3.799-9.201,8.221-13.125,12.969
		c-12.985,15.784-18.91,34.396-18.716,48.717c-10.39,0.157-21.972,4.913-30.785,11.203c-2.252-12.1-6.772-23.858-13.778-34.011
		C1414.251,45.28,1435.951,28.705,1467.864,29.147z M1473.625,233.133c57.976-9.119,38.419-56.853,20.315-46.043
		c-3.262,1.938-5.81,5.081-6.906,8.734c-3.076-9.079,3.05-18.382,10.696-19.402c9.864-1.688,18.132,4.867,20.87,10.452
		C1530.08,208.872,1502.222,234.531,1473.625,233.133z M1115.426,27.673c-57.976,9.119-38.419,56.853-20.315,46.043
		c3.262-1.938,5.81-5.081,6.906-8.734c3.076,9.079-3.05,18.382-10.696,19.402c-9.864,1.688-18.132-4.867-20.87-10.452
		C1058.972,51.934,1086.83,26.275,1115.426,27.673z M1070.451,186.873c2.738-5.585,11.006-12.139,20.87-10.452
		c7.646,1.021,13.772,10.323,10.696,19.402c-1.096-3.653-3.644-6.796-6.906-8.734c-18.104-10.81-37.661,36.925,20.315,46.043
		C1086.83,234.531,1058.972,208.872,1070.451,186.873z M1518.6,73.933c-2.738,5.585-11.006,12.139-20.87,10.452
		c-7.646-1.021-13.772-10.323-10.696-19.402c1.095,3.653,3.644,6.796,6.906,8.734c18.104,10.81,37.661-36.925-20.315-46.043
		C1502.222,26.275,1530.08,51.934,1518.6,73.933z M2182.38,198.357c0.496,8.494,2.744,14.273,9.713,21.499
		c3.864,3.879,8.423,7.074,13.43,9.295c-7.022,2.145-14.404,3.024-21.737,2.914c-717.679,0-670.239,1.254-683.917-2.914
		c12.144-5.442,22.377-16.066,23.119-30.791C1742.786,198.36,1962.585,198.363,2182.38,198.357z M406.672,62.449
		c-0.496-8.494-2.744-14.273-9.713-21.499c-3.863-3.879-8.423-7.074-13.43-9.295c7.022-2.145,14.404-3.024,21.737-2.914
		c717.679,0,670.239-1.254,683.917,2.914c-12.144,5.442-22.377,16.066-23.119,30.791C846.265,62.446,626.467,62.443,406.672,62.449z
		 M1066.063,198.36c0.742,14.725,10.975,25.349,23.119,30.791c-13.679,4.168,33.762,2.914-683.917,2.914
		c-7.333,0.11-14.715-0.769-21.737-2.914c5.008-2.222,9.567-5.417,13.43-9.295c6.969-7.226,9.217-13.005,9.713-21.499
		C626.467,198.363,846.265,198.36,1066.063,198.36z M1522.989,62.446c-0.742-14.725-10.975-25.349-23.119-30.791
		c13.679-4.168-33.762-2.914,683.917-2.914c7.333-0.11,14.715,0.769,21.737,2.914c-5.008,2.222-9.567,5.417-13.43,9.295
		c-6.969,7.226-9.217,13.005-9.713,21.499C1962.585,62.443,1742.786,62.446,1522.989,62.446z M2223.153,232.401
		c-37.461-6.526-43.534-33.901-35.71-46.681c11.065-17.545,36.632-9.056,30.99,10.08c-3.13-9.109-12.665-13.196-18.936-7.745
		c-14.399,12.025-3.528,35.012,18.429,42.232c4.48,1.514,9.195,2.048,13.824,2.875
		C2228.865,233.286,2225.997,232.828,2223.153,232.401z M365.899,28.405c37.461,6.526,43.534,33.901,35.71,46.681
		c-11.065,17.545-36.632,9.056-30.99-10.08c3.13,9.109,12.665,13.196,18.936,7.745c14.399-12.025,3.528-35.012-18.429-42.232
		c-4.48-1.514-9.195-2.048-13.824-2.875C360.186,27.52,363.055,27.978,365.899,28.405z M357.302,233.161
		c4.629-0.827,9.344-1.361,13.824-2.875c21.957-7.22,32.828-30.206,18.429-42.232c-6.271-5.451-15.805-1.364-18.936,7.745
		c-5.642-19.135,19.924-27.625,30.99-10.08c7.824,12.78,1.751,40.155-35.71,46.681C363.055,232.828,360.186,233.286,357.302,233.161
		z M2231.749,27.645c-4.629,0.827-9.344,1.361-13.824,2.875c-21.957,7.22-32.828,30.206-18.429,42.232
		c6.271,5.451,15.805,1.364,18.936-7.745c5.642,19.135-19.924,27.625-30.99,10.08c-7.824-12.78-1.751-40.155,35.71-46.681
		C2225.997,27.978,2228.865,27.52,2231.749,27.645z M2237.514,231.678c19.994-15.767,32.177-40.757,31.825-61.701
		c10.6-0.188,21.658-4.852,30.828-11.169c2.255,12.106,6.808,23.849,13.793,34.02
		C2289.323,216.897,2269.139,231.815,2237.514,231.678z M351.538,29.128c-19.994,15.767-32.177,40.757-31.826,61.701
		c-10.6,0.188-21.658,4.852-30.828,11.169c-2.255-12.106-6.808-23.849-13.793-34.02C299.728,43.909,319.913,28.991,351.538,29.128z
		 M275.091,192.827c6.985-10.171,11.538-21.914,13.793-34.02c9.17,6.317,20.228,10.981,30.828,11.169
		c-0.351,20.944,11.831,45.935,31.826,61.701C319.913,231.815,299.728,216.897,275.091,192.827z M2313.961,67.979
		c-6.985,10.171-11.538,21.914-13.793,34.02c-9.17-6.317-20.228-10.981-30.828-11.169c0.351-20.944-11.831-45.935-31.825-61.701
		C2269.139,28.991,2289.323,43.909,2313.961,67.979z M2327.766,183.861c14.475-14.997,35.549-32.509,55.51-39.079
		c2.64-0.809,5.307-1.602,8.047-1.956c-24.169,9.472-38.812,31.269-50.453,54.872
		C2335.743,193.877,2331.468,189.046,2327.766,183.861z M261.285,76.945c-14.475,14.997-35.549,32.509-55.51,39.079
		c-2.64,0.809-5.307,1.602-8.047,1.956c24.169-9.472,38.812-31.269,50.453-54.872C253.308,66.929,257.583,71.76,261.285,76.945z
		 M248.181,197.698c-11.641-23.603-26.284-45.4-50.453-54.872c2.74,0.354,5.408,1.147,8.047,1.956
		c19.961,6.57,41.035,24.083,55.51,39.079C257.583,189.046,253.308,193.877,248.181,197.698z M2340.87,63.109
		c11.641,23.603,26.284,45.4,50.453,54.872c-2.74-0.354-5.407-1.147-8.047-1.956c-19.961-6.57-41.035-24.083-55.51-39.079
		C2331.468,71.76,2335.743,66.929,2340.87,63.109z M2353.852,180.859c-2.02,7.437-3.79,14.993-4.358,22.698
		c-2.271-1.327-4.541-2.682-6.604-4.324C2346.409,193.028,2349.946,186.824,2353.852,180.859z M235.2,79.947
		c2.02-7.437,3.79-14.993,4.358-22.698c2.27,1.327,4.541,2.682,6.604,4.324C242.643,67.778,239.106,73.982,235.2,79.947z
		 M246.161,199.232c-2.063,1.642-4.333,2.997-6.604,4.324c-0.568-7.705-2.338-15.261-4.358-22.698
		C239.106,186.824,242.643,193.028,246.161,199.232z M2342.89,61.574c2.063-1.642,4.333-2.997,6.604-4.324
		c0.568,7.705,2.337,15.261,4.358,22.698C2349.946,73.982,2346.409,67.778,2342.89,61.574z M2332.612,212.074
		c3.152-4.498,5.661-9.402,8.279-14.218c0.62,0.485,1.239,0.983,1.846,1.495c-2.484,4.825-4.999,9.671-8.23,14.047
		C2333.864,212.968,2333.232,212.529,2332.612,212.074z M256.439,48.732c-3.152,4.498-5.661,9.402-8.279,14.218
		c-0.62-0.485-1.239-0.983-1.846-1.495c2.484-4.825,4.999-9.671,8.23-14.047C255.188,47.838,255.82,48.278,256.439,48.732z
		 M254.544,213.398c-3.232-4.376-5.746-9.222-8.23-14.047c0.607-0.513,1.227-1.01,1.846-1.495c2.618,4.816,5.127,9.72,8.279,14.218
		C255.82,212.529,255.188,212.968,254.544,213.398z M2334.507,47.408c3.232,4.376,5.746,9.222,8.23,14.047
		c-0.607,0.513-1.227,1.01-1.846,1.495c-2.618-4.816-5.127-9.72-8.279-14.218C2333.232,48.278,2333.864,47.838,2334.507,47.408z
		 M2350.544,222.157c-1.327-6.067-1.498-12.332-1.007-18.502c0.818,0.442,1.639,0.882,2.453,1.337
		c-0.415,6.137,0.134,12.338,1.486,18.334C2352.491,222.956,2351.511,222.572,2350.544,222.157z M238.508,38.65
		c1.327,6.067,1.498,12.332,1.007,18.502c-0.818-0.442-1.639-0.882-2.454-1.337c0.415-6.137-0.134-12.338-1.486-18.334
		C236.561,37.85,237.54,38.235,238.508,38.65z M235.575,223.325c1.352-5.996,1.901-12.197,1.486-18.334
		c0.815-0.455,1.636-0.894,2.454-1.337c0.491,6.17,0.32,12.436-1.007,18.502C237.54,222.572,236.561,222.956,235.575,223.325z
		 M2353.477,37.481c-1.352,5.996-1.901,12.197-1.486,18.334c-0.815,0.455-1.635,0.894-2.453,1.337
		c-0.491-6.17-0.321-12.436,1.007-18.502C2351.511,38.235,2352.491,37.85,2353.477,37.481z M2353.586,223.435
		c15.905,5.878,33.26,7.113,50.02,5.157C2394.655,251.083,2361.037,249.809,2353.586,223.435z M235.465,37.371
		c-15.905-5.878-33.26-7.113-50.02-5.157C194.396,9.723,228.014,10.997,235.465,37.371z M185.446,228.592
		c16.76,1.956,34.114,0.72,50.02-5.157C228.014,249.809,194.396,251.083,185.446,228.592z M2403.606,32.214
		c-16.76-1.956-34.115-0.72-50.02,5.157C2361.037,10.997,2394.655,9.723,2403.606,32.214z M2390.447,248.596
		c35.35-16.912,16.988-55.537-6.579-52.955c7.243-5.701,21.912-6.182,31.255,2.859
		C2433.966,216.562,2422.598,251.412,2390.447,248.596z M198.604,12.21c-35.35,16.912-16.988,55.537,6.579,52.955
		c-7.243,5.701-21.912,6.182-31.255-2.859C155.085,44.244,166.454,9.394,198.604,12.21z M173.929,198.5
		c9.343-9.042,24.012-8.56,31.255-2.859c-23.568-2.582-41.93,36.043-6.579,52.955C166.454,251.412,155.085,216.562,173.929,198.5z
		 M2415.123,62.306c-9.343,9.042-24.012,8.56-31.255,2.859c23.568,2.582,41.93-36.043,6.579-52.955
		C2422.598,9.394,2433.966,44.244,2415.123,62.306z M2424.464,207.551c-1.633-5.136-4.379-9.866-5.557-15.151
		c-3.163-12.865,2.128-21.537,8.111-24.102c14.913-6.322,20.093,21.002,2.496,13.43c11.631,15.037,34.731-5.043,20.794-22.088
		c-10.279-12.327-41.326-7.595-34.032,34.34c-11.744-8.327-34.179-7.452-41.481,9.509c13.387-8.242,23.239-4.353,28.795,8.688
		c-17.364,2.399-35.71,0.714-51.515-7.266c3.388-60.708,75.049-88.506,121.831-38.564c2.753,2.923,4.904,6.335,7.043,9.716
		C2464.346,189.998,2445.188,201.054,2424.464,207.551z M164.588,53.255c1.633,5.136,4.379,9.866,5.557,15.151
		c3.163,12.865-2.128,21.537-8.111,24.102c-14.913,6.322-20.093-21.002-2.496-13.43c-11.631-15.037-34.731,5.043-20.794,22.088
		c10.279,12.327,41.326,7.595,34.032-34.34c11.744,8.327,34.179,7.452,41.481-9.509c-13.387,8.242-23.239,4.353-28.795-8.688
		c17.364-2.399,35.71-0.714,51.515,7.266c-3.388,60.708-75.049,88.506-121.831,38.564c-2.753-2.923-4.904-6.335-7.043-9.716
		C124.706,70.808,143.864,59.752,164.588,53.255z M108.102,176.064c2.139-3.381,4.291-6.793,7.043-9.716
		c46.782-49.943,118.443-22.144,121.831,38.564c-15.804,7.98-34.151,9.664-51.515,7.266c5.556-13.041,15.408-16.93,28.795-8.688
		c-7.302-16.96-29.737-17.835-41.481-9.509c7.294-41.935-23.753-46.667-34.032-34.34c-13.937,17.045,9.163,37.125,20.794,22.088
		c-17.597,7.572-12.417-19.753,2.496-13.43c5.983,2.565,11.274,11.237,8.111,24.102c-1.178,5.285-3.924,10.016-5.557,15.151
		C143.864,201.054,124.706,189.998,108.102,176.064z M2480.95,84.742c-2.139,3.381-4.291,6.793-7.043,9.716
		c-46.782,49.943-118.443,22.144-121.831-38.564c15.805-7.98,34.151-9.664,51.515-7.266c-5.556,13.041-15.408,16.93-28.795,8.688
		c7.302,16.96,29.737,17.835,41.481,9.509c-7.294,41.935,23.753,46.667,34.032,34.34c13.937-17.045-9.163-37.125-20.794-22.088
		c17.597-7.572,12.417,19.753-2.496,13.43c-5.983-2.565-11.274-11.237-8.111-24.102c1.178-5.285,3.924-10.016,5.557-15.151
		C2445.188,59.752,2464.346,70.808,2480.95,84.742z M2423.219,166.525c7.416-8.561,19.238-5.474,22.399,2.728
		c1.544,4.046-0.085,8.542-2.594,11.825C2447.3,171.074,2437.596,159.336,2423.219,166.525z M165.833,94.281
		c-7.416,8.561-19.238,5.474-22.399-2.728c-1.544-4.046,0.085-8.542,2.594-11.825C141.752,89.733,151.455,101.47,165.833,94.281z
		 M146.027,181.078c-2.508-3.284-4.138-7.779-2.594-11.825c3.161-8.202,14.983-11.289,22.399-2.728
		C151.455,159.336,141.752,171.074,146.027,181.078z M2443.024,79.728c2.508,3.284,4.138,7.779,2.594,11.825
		c-3.161,8.202-14.983,11.289-22.399,2.728C2437.596,101.47,2447.3,89.733,2443.024,79.728z M1389.492,130.403
		c2.658,14.633,0.212,34.05-9.94,50.513c-8.429-8.303-17.297-16.192-26.876-23.15c-19.103-13.71-40.163-19.137-58.15-19.966
		c-17.987,0.829-39.047,6.256-58.15,19.966c-9.579,6.958-18.447,14.846-26.876,23.15c-10.152-16.464-12.598-35.88-9.94-50.513
		c-2.658-14.633-0.212-34.05,9.94-50.513c8.429,8.303,17.297,16.192,26.876,23.15c19.103,13.71,40.163,19.137,58.15,19.966
		c17.987-0.829,39.047-6.256,58.15-19.966c9.579-6.958,18.447-14.846,26.876-23.15C1389.703,96.353,1392.15,115.77,1389.492,130.403
		z M281.503,130.403c12.067-13.709,31.325-24.048,54.7-24.465c-1.028-25.322,11.888-58.884,39.818-71.552
		c18.994,9.933,21.063,33.826,6.082,36.605c-6.14,1.198-9.211-5.024-10.888-11.081c-2.96,5.054-4.187,11.55-1.675,17.034
		c7.31,16.237,35.002,11.402,37.078-10.913c68.875,0.015,596.834,0.022,659.492-0.003c1.049,12.974,11.083,20.371,21.514,20.455
		c13.633,0.236,21.622-13.488,13.833-26.531c-8.618,30.697-39.133-7.735-4.761-25.561c31.992,14.423,40.691,52.765,39.799,71.528
		c23.238,0.474,42.075,10.211,54.561,24.483c-12.486,14.271-31.323,24.009-54.561,24.483c0.892,18.762-7.807,57.104-39.799,71.528
		c-34.372-17.825-3.857-56.257,4.761-25.561c7.789-13.043-0.2-26.767-13.833-26.531c-10.432,0.084-20.465,7.481-21.514,20.455
		c-62.658-0.025-590.616-0.019-659.492-0.003c-2.076-22.315-29.768-27.149-37.078-10.913c-2.512,5.484-1.285,11.981,1.675,17.034
		c1.677-6.057,4.748-12.279,10.888-11.081c14.981,2.779,12.912,26.671-6.082,36.605c-27.93-12.668-40.846-46.23-39.818-71.552
		C312.828,154.451,293.57,144.112,281.503,130.403z M2307.548,130.403c-12.067,13.709-31.325,24.048-54.7,24.465
		c1.028,25.322-11.888,58.884-39.818,71.552c-18.994-9.933-21.063-33.826-6.082-36.605c6.14-1.198,9.211,5.024,10.888,11.081
		c2.96-5.054,4.187-11.55,1.676-17.034c-7.31-16.237-35.002-11.402-37.078,10.913c-68.875-0.015-596.834-0.022-659.492,0.003
		c-1.049-12.974-11.083-20.371-21.514-20.455c-13.633-0.236-21.622,13.488-13.833,26.531c8.618-30.697,39.133,7.735,4.761,25.561
		c-31.992-14.423-40.691-52.765-39.799-71.528c-23.238-0.474-42.075-10.211-54.561-24.483
		c12.486-14.271,31.323-24.009,54.561-24.483c-0.892-18.762,7.807-57.104,39.799-71.528c34.372,17.825,3.857,56.257-4.761,25.561
		c-7.789,13.043,0.2,26.767,13.833,26.531c10.431-0.084,20.465-7.481,21.514-20.455c62.658,0.025,590.616,0.019,659.492,0.003
		c2.076,22.315,29.768,27.149,37.078,10.913c2.511-5.484,1.285-11.981-1.676-17.034c-1.677,6.057-4.748,12.279-10.888,11.081
		c-14.981-2.779-12.912-26.671,6.082-36.605c27.93,12.668,40.845,46.23,39.818,71.552
		C2276.223,106.355,2295.481,116.694,2307.548,130.403z M119.466,130.403c-5.211-10.162-12.803-19.266-23.043-26.564
		c-35.16-24.51-67.11-7.686-61.686,20.745C14.33,109.756,18.806,77.657,49.919,71.812c-37.49-17.019-18.461-31.799-27.941-54.939
		c21.733,9.237,38.626-9.554,54.936,27.99c5.486-30.274,37.518-36.414,52.76-15.319c-53.399-7.555-38.397,83.295,29.314,92.517
		c49.744,6.869,80.583-19.096,104.226-42.152c9.795,15.826,12.77,35.456,10.017,50.495c2.753,15.04-0.222,34.669-10.017,50.495
		c-23.643-23.057-54.482-49.021-104.226-42.152c-67.711,9.222-82.713,100.072-29.314,92.517
		c-15.242,21.094-47.274,14.955-52.76-15.319c-16.31,37.543-33.203,18.753-54.936,27.99c9.48-23.139-9.549-37.92,27.941-54.939
		c-31.113-5.845-35.589-37.944-15.182-52.772c-5.424,28.431,26.526,45.255,61.686,20.745
		C106.663,149.669,114.255,140.565,119.466,130.403z M2469.586,130.403c5.21,10.162,12.803,19.266,23.043,26.564
		c35.16,24.51,67.11,7.686,61.686-20.745c20.407,14.828,15.931,46.927-15.182,52.772c37.49,17.019,18.461,31.799,27.941,54.939
		c-21.732-9.237-38.626,9.554-54.936-27.99c-5.486,30.274-37.518,36.414-52.76,15.319c53.399,7.555,38.397-83.295-29.314-92.517
		c-49.744-6.869-80.583,19.096-104.226,42.152c-9.795-15.826-12.77-35.456-10.017-50.495c-2.753-15.04,0.222-34.669,10.017-50.495
		c23.643,23.057,54.482,49.021,104.226,42.152c67.711-9.222,82.713-100.072,29.314-92.517c15.241-21.094,47.274-14.955,52.76,15.319
		c16.31-37.543,33.203-18.753,54.936-27.99c-9.48,23.139,9.549,37.92-27.941,54.939c31.113,5.845,35.589,37.944,15.182,52.772
		c5.424-28.431-26.526-45.255-61.686-20.745C2482.389,111.137,2474.796,120.241,2469.586,130.403z M1294.526,141.088
		c27.66,3.125,52.745,22.705,58.117,57.479c0.268,2.093,0.714,4.22,0.565,6.326c-15.346,8.002-34.476,9.7-51.39,7.275
		c5.225-12.596,15.247-17.053,28.777-8.697c-6.208-14.483-23.693-17.348-36.068-12.402c-12.376-4.946-29.861-2.081-36.069,12.402
		c13.53-8.356,23.552-3.899,28.777,8.697c-16.914,2.425-36.043,0.727-51.39-7.275c-0.15-2.106,0.296-4.233,0.565-6.326
		C1241.781,163.793,1266.866,144.213,1294.526,141.088z M1294.526,119.718c-27.66-3.125-52.745-22.705-58.117-57.479
		c-0.269-2.093-0.714-4.22-0.565-6.326c15.346-8.002,34.476-9.7,51.39-7.275c-5.225,12.596-15.247,17.053-28.777,8.697
		c6.208,14.483,23.693,17.348,36.069,12.402c12.376,4.946,29.861,2.081,36.068-12.402c-13.53,8.356-23.552,3.899-28.777-8.697
		c16.914-2.425,36.043-0.727,51.39,7.275c0.15,2.106-0.296,4.233-0.565,6.326C1347.27,97.013,1322.186,116.593,1294.526,119.718z
		 M1294.526,194.89c3.582-2.087,7.869-3.312,12.827-3.32c4.971-0.134,10.208,0.928,14.175,4.071
		c-24.144-2.501-41.803,36.875-6.592,52.949c-8.445,0.777-15.22-0.829-20.41-3.935c-5.19,3.106-11.966,4.712-20.411,3.935
		c35.211-16.074,17.552-55.45-6.592-52.949c3.967-3.143,9.204-4.205,14.175-4.071
		C1286.657,191.578,1290.944,192.803,1294.526,194.89z M1294.526,65.916c-3.582,2.087-7.869,3.312-12.827,3.32
		c-4.971,0.134-10.208-0.928-14.175-4.071c24.144,2.501,41.803-36.875,6.592-52.949c8.445-0.777,15.22,0.829,20.411,3.935
		c5.19-3.106,11.966-4.712,20.41-3.935c-35.211,16.074-17.552,55.45,6.592,52.949c-3.967,3.143-9.204,4.205-14.175,4.071
		C1302.394,69.228,1298.107,68.003,1294.526,65.916z M2546.631,130.403c9.837,21.894-9.146,38.73-31.442,33.842
		c8.143-10.13,15.504-21.7,21.447-33.842c-5.942-12.142-13.304-23.713-21.447-33.842
		C2537.485,91.673,2556.468,108.509,2546.631,130.403z M42.42,130.403c-9.837-21.894,9.146-38.73,31.442-33.842
		c-8.143,10.13-15.504,21.7-21.447,33.842c5.942,12.142,13.304,23.713,21.447,33.842C51.566,169.133,32.583,152.297,42.42,130.403z
		 M1294.526,248.358c2.632,1.462,5.43,2.536,8.28,3.131c1.422,0.384,2.948,0.296,4.309,0.867
		c20.063,1.557,42.342-6.65,47.783-30.044c5.594-2.386,11.016-5.221,15.972-8.758c4.684,6.686,10.629,12.387,17.043,17.397
		c-6.312,14.746,21.777,25.663,24.609,10.299c2.327-11.245-15.005-20.906-23.086-12.597c-6.482-4.382-11.776-10.266-16.467-16.476
		c2.693-2.339,8.459-6.032,16.427-16.424c39.615,38.227,58.159,39.081,83.212,39.302c5.803,3.156,19.462,12.227,43.794,12.359
		c726.973,0,688.685,5.169,715.761-12.054c0.558-0.442,1.288-0.366,1.944-0.339c25.367,0.837,46.586-4.796,81.867-39.284
		c8.743,11.304,14.027,14.088,16.412,16.457c-4.626,6.235-9.958,12.088-16.43,16.451c-10.54-10.453-30.675,7.058-20.837,16.943
		c8.384,8.938,27.448-2.787,22.387-14.666c6.408-4.989,12.344-10.693,17.013-17.367c4.983,3.491,10.364,6.387,15.972,8.731
		c9.818,41.414,76.347,38.691,76.88,1.416c21.859-6.427,42.195-17.553,60.044-31.643c4.655,22.685-11.933,41.19-34.203,31.34
		c4.656,28.193,44.629,33.365,58.347,6.836c21.742,23.08,33.275,8.513,62.965,21.154c-12.25-28.356,1.603-42.279-21.16-62.91
		c28.553-16.542,18.665-53.419-5.276-58.079c23.942-4.66,33.829-41.537,5.276-58.079c22.763-20.631,8.91-34.554,21.16-62.91
		c-29.69,12.641-41.223-1.926-62.965,21.154c-13.719-26.529-53.691-21.357-58.347,6.836c22.27-9.849,38.858,8.656,34.203,31.34
		c-17.849-14.089-38.185-25.216-60.044-31.642c-0.533-37.275-67.062-39.999-76.88,1.416c-5.609,2.344-10.989,5.24-15.972,8.731
		c-4.669-6.674-10.604-12.378-17.013-17.367c5.061-11.88-14.002-23.605-22.387-14.666c-9.838,9.884,10.297,27.396,20.837,16.943
		c6.472,4.364,11.804,10.217,16.43,16.451c-2.385,2.369-7.669,5.153-16.412,16.457c-35.281-34.487-56.5-40.121-81.867-39.284
		c-0.656,0.027-1.385,0.104-1.944-0.339c-27.076-17.223,11.211-12.054-715.761-12.054c-24.332,0.133-37.991,9.203-43.794,12.359
		c-25.053,0.221-43.597,1.075-83.212,39.302c-7.968-10.392-13.734-14.084-16.427-16.424c4.69-6.21,9.985-12.094,16.467-16.476
		c8.081,8.309,25.413-1.352,23.086-12.597c-2.832-15.363-30.92-4.447-24.609,10.299c-6.415,5.011-12.359,10.711-17.043,17.397
		c-4.956-3.537-10.379-6.372-15.972-8.758c-5.441-23.393-27.72-31.601-47.783-30.044c-1.361,0.571-2.887,0.482-4.309,0.867
		c-2.85,0.595-5.648,1.669-8.28,3.131c-2.632-1.462-5.43-2.536-8.28-3.131c-1.422-0.384-2.948-0.296-4.309-0.867
		c-20.063-1.557-42.342,6.65-47.783,30.044c-5.594,2.386-11.016,5.221-15.972,8.758c-4.684-6.686-10.629-12.387-17.044-17.397
		c6.312-14.746-21.777-25.663-24.609-10.299c-2.327,11.245,15.005,20.906,23.086,12.597c6.482,4.382,11.776,10.266,16.467,16.476
		c-2.693,2.339-8.459,6.032-16.427,16.424c-39.615-38.227-58.159-39.081-83.212-39.302c-5.803-3.156-19.462-12.227-43.794-12.359
		c-726.972,0-688.685-5.169-715.761,12.054c-0.558,0.442-1.288,0.366-1.944,0.339c-25.367-0.837-46.586,4.796-81.867,39.284
		c-8.743-11.304-14.027-14.088-16.412-16.457c4.626-6.235,9.958-12.088,16.43-16.451c10.54,10.453,30.675-7.058,20.837-16.943
		c-8.384-8.938-27.448,2.787-22.387,14.666c-6.408,4.989-12.344,10.693-17.013,17.367c-4.983-3.491-10.363-6.387-15.972-8.731
		c-9.818-41.414-76.347-38.691-76.88-1.416c-21.859,6.427-42.195,17.553-60.044,31.642c-4.655-22.685,11.932-41.19,34.203-31.34
		C131.182,9.212,91.209,4.039,77.49,30.569C55.749,7.489,44.216,22.056,14.526,9.415c12.25,28.356-1.603,42.279,21.16,62.91
		c-28.553,16.542-18.665,53.419,5.276,58.079c-23.941,4.66-33.829,41.537-5.276,58.079c-22.763,20.631-8.91,34.554-21.16,62.91
		c29.69-12.641,41.223,1.926,62.965-21.154c13.719,26.529,53.691,21.357,58.348-6.836c-22.27,9.849-38.858-8.656-34.203-31.34
		c17.849,14.089,38.185,25.216,60.044,31.643c0.533,37.275,67.062,39.999,76.88-1.416c5.609-2.344,10.989-5.24,15.972-8.731
		c4.669,6.674,10.604,12.378,17.013,17.367c-5.061,11.88,14.003,23.605,22.387,14.666c9.838-9.884-10.297-27.396-20.837-16.943
		c-6.473-4.364-11.804-10.217-16.43-16.451c2.385-2.369,7.669-5.153,16.412-16.457c35.281,34.487,56.5,40.121,81.867,39.284
		c0.656-0.027,1.385-0.104,1.944,0.339c27.076,17.223-11.211,12.054,715.761,12.054c24.332-0.133,37.991-9.203,43.794-12.359
		c25.053-0.221,43.597-1.075,83.212-39.302c7.968,10.392,13.734,14.084,16.427,16.424c-4.69,6.21-9.985,12.094-16.467,16.476
		c-8.081-8.309-25.413,1.352-23.086,12.597c2.832,15.363,30.92,4.447,24.609-10.299c6.415-5.011,12.359-10.711,17.044-17.397
		c4.956,3.537,10.379,6.372,15.972,8.758c5.441,23.393,27.72,31.601,47.783,30.044c1.361-0.571,2.887-0.482,4.309-0.867
		C1289.095,250.894,1291.894,249.82,1294.526,248.358z M2518.138,130.403c-5.384,9.7-11.747,18.863-18.881,27.348
		c-10.959-6.087-19.956-15.848-26.141-27.348c6.185-11.5,15.182-21.262,26.141-27.348
		C2506.391,111.54,2512.754,120.703,2518.138,130.403z M70.913,130.403c5.384-9.7,11.747-18.864,18.881-27.348
		c10.959,6.087,19.956,15.848,26.141,27.348c-6.185,11.5-15.182,21.262-26.141,27.348C82.661,149.267,76.298,140.103,70.913,130.403
		z"/>
	<path d="M2509.245,205.104c9.7,8.346,24.329,0.969,22.369-11.413c-0.604-4.599-3.528-8.746-7.507-11.068
		C2509.199,173.768,2495.611,193.962,2509.245,205.104z M2524.723,195.451c6.898,3.351-2.93,13.063-6.146,6.064
		c-5.59,0.397-6.843-5.677-3.006-9.301C2518.984,188.784,2524.847,189.751,2524.723,195.451z"/>
	<path d="M79.807,55.702c-9.7-8.346-24.329-0.969-22.369,11.413c0.604,4.599,3.528,8.746,7.507,11.068
		C79.853,87.038,93.441,66.844,79.807,55.702z M64.329,65.355c-6.898-3.351,2.93-13.063,6.146-6.064
		c5.59-0.397,6.843,5.677,3.006,9.301C70.068,72.022,64.204,71.055,64.329,65.355z"/>
	<path d="M79.807,205.104c-9.7,8.346-24.329,0.969-22.369-11.413c0.604-4.599,3.528-8.746,7.507-11.068
		C79.853,173.768,93.441,193.962,79.807,205.104z M64.329,195.451c-6.898,3.351,2.93,13.063,6.146,6.064
		c5.59,0.397,6.843-5.677,3.006-9.301C70.068,188.784,64.204,189.751,64.329,195.451z"/>
	<path d="M2509.245,55.702c9.7-8.346,24.329-0.969,22.369,11.413c-0.604,4.599-3.528,8.746-7.507,11.068
		C2509.199,87.038,2495.611,66.844,2509.245,55.702z M2524.723,65.355c6.898-3.351-2.93-13.063-6.146-6.064
		c-5.59-0.397-6.843,5.677-3.006,9.301C2518.984,72.022,2524.847,71.055,2524.723,65.355z"/>
	<path d="M2451.464,130.403c7.834,6.84,17.025,15.522,27.933,26.625c0.256-0.247,0.51-0.482,0.763-0.711
		c-6.888-6.927-13.827-13.812-20.406-21.038c-1.534-1.677-2.994-3.302-4.382-4.876c1.389-1.574,2.848-3.199,4.382-4.876
		c6.579-7.226,13.519-14.111,20.406-21.038c-0.253-0.229-0.507-0.464-0.763-0.711
		C2468.488,114.881,2459.297,123.563,2451.464,130.403z M137.588,130.403c-7.834-6.84-17.025-15.522-27.933-26.625
		c-0.256,0.247-0.51,0.482-0.763,0.711c6.888,6.927,13.827,13.812,20.406,21.038c1.534,1.677,2.994,3.302,4.382,4.876
		c-1.389,1.574-2.848,3.199-4.382,4.876c-6.579,7.226-13.519,14.111-20.406,21.038c0.253,0.229,0.507,0.464,0.763,0.711
		C120.563,145.925,129.754,137.243,137.588,130.403z"/>
	<path d="M2459.565,130.403c7.196,8.161,12.985,13.4,13.521,13.796c-1.444-1.895-3.186-3.543-4.587-5.472
		c-2.213-2.899-4.123-5.67-5.765-8.324c1.642-2.655,3.552-5.426,5.765-8.324c1.401-1.929,3.143-3.577,4.587-5.472
		C2472.55,117.003,2466.76,122.242,2459.565,130.403z M129.487,130.403c-7.196-8.161-12.985-13.4-13.521-13.796
		c1.443,1.895,3.186,3.543,4.587,5.472c2.213,2.899,4.123,5.67,5.765,8.324c-1.642,2.655-3.552,5.426-5.765,8.324
		c-1.401,1.929-3.143,3.577-4.587,5.472C116.502,143.803,122.291,138.564,129.487,130.403z"/>
	<path d="M2186.96,224.851c-5.151-5.377-9.57-11.853-10.858-19.323c-10.18-0.035-612.696-0.023-646.822,0.006
		c-1.254,7.492-5.725,13.986-10.901,19.36C1519.197,224.936,2186.154,224.961,2186.96,224.851z"/>
	<path d="M402.091,35.955c5.151,5.377,9.57,11.853,10.858,19.323c10.18,0.035,612.696,0.023,646.822-0.006
		c1.254-7.492,5.725-13.986,10.9-19.36C1069.854,35.87,402.898,35.845,402.091,35.955z"/>
	<path d="M402.091,224.851c5.151-5.377,9.57-11.853,10.858-19.323c10.18-0.035,612.696-0.023,646.822,0.006
		c1.254,7.492,5.725,13.986,10.9,19.36C1069.854,224.936,402.898,224.961,402.091,224.851z"/>
	<path d="M2186.96,35.955c-5.151,5.377-9.57,11.853-10.858,19.323c-10.18,0.035-612.696,0.023-646.822-0.006
		c-1.254-7.492-5.725-13.986-10.901-19.36C1519.197,35.87,2186.154,35.845,2186.96,35.955z"/>
</g>
</svg>
